P1
7 36
0 0 0 0 0 0 0
0 0 1 1 0 0 0
0 0 1 1 0 0 0
0 0 1 1 0 0 0
0 0 1 1 0 0 0
0 0 1 1 0 0 0
0 0 1 1 0 0 0
0 0 1 1 0 0 0
0 0 1 1 0 0 0
0 0 1 1 0 0 0
0 0 1 1 0 0 0
0 0 1 1 0 0 0
0 0 1 1 0 0 0
0 0 1 1 0 0 0
0 0 1 1 0 0 0
0 0 1 1 0 0 0
0 0 1 1 0 0 0
0 0 1 1 0 0 0
0 0 1 1 0 0 0
0 0 1 1 0 0 0
0 0 1 1 0 0 0
0 0 1 1 0 0 0
0 0 1 1 0 0 0
0 0 0 0 0 0 0
0 0 0 0 0 0 0
0 0 0 0 0 0 0
0 0 0 0 0 0 0
0 0 0 0 0 0 0
0 0 0 0 0 0 0
0 0 0 0 0 0 0
0 0 0 0 0 0 0
0 0 0 0 0 0 0
0 0 0 0 0 0 0
0 0 0 0 0 0 0
0 0 0 0 0 0 0
0 0 0 0 0 0 0
