P1
14 24
00000000000000
01111111111110
01111111111110
00110000001100
00110000001100
00011000011000
00011000011000
00001100110000
00001100110000
00000111100000
00000111100000
00000011000000
00000011000000
00000111100000
00000111100000
00001100110000
00001100110000
00011000011000
00011000011000
00110000001100
00110000001100
01111111111110
01111111111110
00000000000000
